HIERARCHY
ROOT Hips
{
	OFFSET -14.64140 90.27770 -84.91600
	CHANNELS 6 Xposition Yposition Zposition Zrotation Xrotation Yrotation
	JOINT Spine
	{
		OFFSET 0.00000 13.20850 -1.60436
		CHANNELS 3 Zrotation Xrotation Yrotation
		JOINT Spine1
		{
			OFFSET 0.00000 8.61716 0.00000
			CHANNELS 3 Zrotation Xrotation Yrotation
			JOINT Spine2
			{
				OFFSET 0.00000 8.61717 0.00000
				CHANNELS 3 Zrotation Xrotation Yrotation
				JOINT Spine3
				{
					OFFSET 0.00000 8.61717 0.00000
					CHANNELS 3 Zrotation Xrotation Yrotation
					JOINT Neck
					{
						OFFSET 0.00000 11.07920 1.10792
						CHANNELS 3 Zrotation Xrotation Yrotation
						JOINT Neck1
						{
							OFFSET 0.00000 7.08032 0.00000
							CHANNELS 3 Zrotation Xrotation Yrotation
							JOINT Head
							{
								OFFSET 0.00000 7.08031 0.00000
								CHANNELS 3 Zrotation Xrotation Yrotation
								End site
								{
									OFFSET 0.00000 0.00000 0.00000
								}
							}
						}
					}
					JOINT RightShoulder
					{
						OFFSET -0.01000 7.91373 5.19711
						CHANNELS 3 Zrotation Xrotation Yrotation
						JOINT RightArm
						{
							OFFSET -18.41580 0.00000 0.00000
							CHANNELS 3 Zrotation Xrotation Yrotation
							JOINT RightForeArm
							{
								OFFSET -29.11090 0.00000 0.00000
								CHANNELS 3 Zrotation Xrotation Yrotation
								JOINT RightHand
								{
									OFFSET -24.65040 0.00000 0.00000
									CHANNELS 3 Zrotation Xrotation Yrotation
									JOINT RightHandThumb1
									{
										OFFSET -5.35114 -0.85590 3.97906
										CHANNELS 3 Zrotation Xrotation Yrotation
										JOINT RightHandThumb2
										{
											OFFSET -4.52789 0.00000 0.00000
											CHANNELS 3 Zrotation Xrotation Yrotation
											JOINT RightHandThumb3
											{
												OFFSET -2.46976 0.00000 0.00000
												CHANNELS 3 Zrotation Xrotation Yrotation
												End site
												{
													OFFSET 0.00000 0.00000 0.00000
												}
											}
										}
									}
									JOINT RightHandIndex1
									{
										OFFSET -14.26970 0.00000 2.88139
										CHANNELS 3 Zrotation Xrotation Yrotation
										JOINT RightHandIndex2
										{
											OFFSET -5.48836 0.00000 0.00000
											CHANNELS 3 Zrotation Xrotation Yrotation
											JOINT RightHandIndex3
											{
												OFFSET -3.01859 0.00000 0.00000
												CHANNELS 3 Zrotation Xrotation Yrotation
												End site
												{
													OFFSET 0.00000 0.00000 0.00000
												}
											}
										}
									}
									JOINT RightHandMiddle1
									{
										OFFSET -14.26970 0.00000 -0.09147
										CHANNELS 3 Zrotation Xrotation Yrotation
										JOINT RightHandMiddle2
										{
											OFFSET -6.17441 0.00000 0.00000
											CHANNELS 3 Zrotation Xrotation Yrotation
											JOINT RightHandMiddle3
											{
												OFFSET -3.56743 0.00000 0.00000
												CHANNELS 3 Zrotation Xrotation Yrotation
												End site
												{
													OFFSET 0.00000 0.00000 0.00000
												}
											}
										}
									}
									JOINT RightHandRing1
									{
										OFFSET -12.69180 0.00000 -3.06433
										CHANNELS 3 Zrotation Xrotation Yrotation
										JOINT RightHandRing2
										{
											OFFSET -5.62556 0.00000 0.00000
											CHANNELS 3 Zrotation Xrotation Yrotation
											JOINT RightHandRing3
											{
												OFFSET -3.56744 0.00000 0.00000
												CHANNELS 3 Zrotation Xrotation Yrotation
												End site
												{
													OFFSET 0.00000 0.00000 0.00000
												}
											}
										}
									}
									JOINT RightHandPinky1
									{
										OFFSET -11.11390 0.00000 -6.03719
										CHANNELS 3 Zrotation Xrotation Yrotation
										JOINT RightHandPinky2
										{
											OFFSET -4.52789 0.00000 0.00000
											CHANNELS 3 Zrotation Xrotation Yrotation
											JOINT RightHandPinky3
											{
												OFFSET -2.46976 0.00000 0.00000
												CHANNELS 3 Zrotation Xrotation Yrotation
												End site
												{
													OFFSET 0.00000 0.00000 0.00000
												}
											}
										}
									}
								}
							}
						}
					}
					JOINT LeftShoulder
					{
						OFFSET 0.01000 7.91373 5.19711
						CHANNELS 3 Zrotation Xrotation Yrotation
						JOINT LeftArm
						{
							OFFSET 18.41580 0.00000 0.00000
							CHANNELS 3 Zrotation Xrotation Yrotation
							JOINT LeftForeArm
							{
								OFFSET 29.11090 0.00000 0.00000
								CHANNELS 3 Zrotation Xrotation Yrotation
								JOINT LeftHand
								{
									OFFSET 24.65040 0.00000 0.00000
									CHANNELS 3 Zrotation Xrotation Yrotation
									JOINT LeftHandThumb1
									{
										OFFSET 5.35114 -0.85590 3.97906
										CHANNELS 3 Zrotation Xrotation Yrotation
										JOINT LeftHandThumb2
										{
											OFFSET 4.52789 0.00000 0.00000
											CHANNELS 3 Zrotation Xrotation Yrotation
											JOINT LeftHandThumb3
											{
												OFFSET 2.46977 0.00000 0.00000
												CHANNELS 3 Zrotation Xrotation Yrotation
												End site
												{
													OFFSET 0.00000 0.00000 0.00000
												}
											}
										}
									}
									JOINT LeftHandIndex1
									{
										OFFSET 14.26970 0.00000 2.88139
										CHANNELS 3 Zrotation Xrotation Yrotation
										JOINT LeftHandIndex2
										{
											OFFSET 5.48836 0.00000 0.00000
											CHANNELS 3 Zrotation Xrotation Yrotation
											JOINT LeftHandIndex3
											{
												OFFSET 3.01859 0.00000 0.00000
												CHANNELS 3 Zrotation Xrotation Yrotation
												End site
												{
													OFFSET 0.00000 0.00000 0.00000
												}
											}
										}
									}
									JOINT LeftHandMiddle1
									{
										OFFSET 14.26970 0.00000 -0.09147
										CHANNELS 3 Zrotation Xrotation Yrotation
										JOINT LeftHandMiddle2
										{
											OFFSET 6.17440 0.00000 0.00000
											CHANNELS 3 Zrotation Xrotation Yrotation
											JOINT LeftHandMiddle3
											{
												OFFSET 3.56744 0.00000 0.00000
												CHANNELS 3 Zrotation Xrotation Yrotation
												End site
												{
													OFFSET 0.00000 0.00000 0.00000
												}
											}
										}
									}
									JOINT LeftHandRing1
									{
										OFFSET 12.69180 0.00000 -3.06433
										CHANNELS 3 Zrotation Xrotation Yrotation
										JOINT LeftHandRing2
										{
											OFFSET 5.62556 0.00000 0.00000
											CHANNELS 3 Zrotation Xrotation Yrotation
											JOINT LeftHandRing3
											{
												OFFSET 3.56744 0.00000 0.00000
												CHANNELS 3 Zrotation Xrotation Yrotation
												End site
												{
													OFFSET 0.00000 0.00000 0.00000
												}
											}
										}
									}
									JOINT LeftHandPinky1
									{
										OFFSET 11.11390 0.00000 -6.03719
										CHANNELS 3 Zrotation Xrotation Yrotation
										JOINT LeftHandPinky2
										{
											OFFSET 4.52789 0.00000 0.00000
											CHANNELS 3 Zrotation Xrotation Yrotation
											JOINT LeftHandPinky3
											{
												OFFSET 2.46976 0.00000 0.00000
												CHANNELS 3 Zrotation Xrotation Yrotation
												End site
												{
													OFFSET 0.00000 0.00000 0.00000
												}
											}
										}
									}
								}
							}
						}
					}
					JOINT pCube4
					{
						OFFSET 0.00000 10.91090 1.10792
						CHANNELS 3 Zrotation Xrotation Yrotation
						End site
						{
							OFFSET 0.00000 0.00000 0.00000
						}
					}
				}
			}
		}
	}
	JOINT RightUpLeg
	{
		OFFSET -9.98441 0.00000 0.00000
		CHANNELS 3 Zrotation Xrotation Yrotation
		JOINT RightLeg
		{
			OFFSET 0.00000 -42.11790 0.00000
			CHANNELS 3 Zrotation Xrotation Yrotation
			JOINT RightFoot
			{
				OFFSET 0.00000 -45.00020 -0.00001
				CHANNELS 3 Zrotation Xrotation Yrotation
				JOINT RightForeFoot
				{
					OFFSET 0.00000 -3.74820 0.00000
					CHANNELS 3 Zrotation Xrotation Yrotation
					JOINT RightToeBase
					{
						OFFSET 0.00000 0.06325 14.43120
						CHANNELS 3 Zrotation Xrotation Yrotation
						End site
						{
							OFFSET 0.00000 0.00000 0.00000
						}
					}
				}
			}
		}
	}
	JOINT LeftUpLeg
	{
		OFFSET 9.98441 0.00000 0.00000
		CHANNELS 3 Zrotation Xrotation Yrotation
		JOINT LeftLeg
		{
			OFFSET 0.00000 -42.11800 0.00000
			CHANNELS 3 Zrotation Xrotation Yrotation
			JOINT LeftFoot
			{
				OFFSET 0.00000 -45.00070 0.00000
				CHANNELS 3 Zrotation Xrotation Yrotation
				JOINT LeftForeFoot
				{
					OFFSET 0.00000 -3.74824 0.00000
					CHANNELS 3 Zrotation Xrotation Yrotation
					JOINT LeftToeBase
					{
						OFFSET 0.00000 0.06325 14.43110
						CHANNELS 3 Zrotation Xrotation Yrotation
						End site
						{
							OFFSET 0.00000 0.00000 0.00000
						}
					}
				}
			}
		}
	}
}
MOTION
Frames: 4
Frame Time: 0.050000
0.04210001410296257 -0.03609445463112842 -0.013984935074360248 0.034053765794191455 -0.03644949173526124 -0.02404443022718933 0.2572123048319766 3.6310627020441393 -1.3295919241443122 -1.0483733631672798 3.5039204234921337 0.4975096853805943 -1.0917063897530994 -1.0803432424522497 0.8209247723562579 -1.330311994297836 -0.3478422903277013 -0.4735402066988264 -0.5491519399748054 11.48332299269009 1.3006140633789258 0.03820154922311118 -0.37842866096780187 1.438984572978805 -0.24964368353186567 -15.687164048210644 0.16520712629600076 -9.059252611750626 3.3523751550053587 -14.550401839260646 62.78343026344498 -19.660264280855237 27.53148879702938 20.266755514552365 -4.616558160301078 80.88082270147886 16.343353559006015 -0.5271902580254132 -4.655704202080562 4.506881280044477 -0.17458411142700986 -1.5946903331631985 -0.044580638205639796 0.029596074794894935 -56.26110251868504 -0.028977131289247678 -0.014452398607793704 -56.209236151232716 -38.76512135337587 -0.038302375840569176 0.010074240441170414 -0.02263258394223056 0.0355570475529106 0.0017280555957800527 -0.008745895997670406 0.04996665154318449 -0.010634085708199898 -36.74180769829394 0.021238436231801744 -0.014236071807662584 0.04661050479074715 -0.01396979872994071 0.016920693673235985 -0.026717725827694185 0.0033738013686432943 1.651730843524105e-05 -19.774367461078587 0.0006118924740116931 0.04589422619769363 0.025925253642868934 -0.03665690388604023 0.0312110719313142 -0.04992411831218629 0.017122573285938157 -0.002360962408148946 24.034909493100642 0.0109558816294772 0.025722521476588735 28.843425708649296 0.02852103958817742 0.044095294738845034 28.850386946472373 0.009782347789243908 -0.015086666296212758 7.451608802274835 1.8937945325698757 13.130148621805729 -62.28004564577858 16.37630861921412 -18.286287471608304 8.043495477035979 -8.443766507757365 -50.52953741020743 -17.591085486141363 -0.5825382358600371 3.4990313920850777 -0.4258197252892723 0.0720356451664386 -8.109254152025839 0.03726368950781049 -0.041334089642564895 44.593433792255276 -0.022216305315119235 0.00328686675851857 44.5680538389739 12.507893387114622 0.035113964771657555 0.03150895313289124 0.02725789232642777 0.0026728018844537917 -0.033897562097085235 -0.03783546240467293 -0.01724181453419288 -0.014477634603640004 11.149192764992257 -0.0016069336621935173 -0.015272797661071235 -0.022783461023333493 0.009186115316352815 0.018005614543479546 -0.022828851813302062 0.047493813589799774 0.011356395024046688 4.753589399017738 -0.04449708295600029 -0.006479602563128914 0.037565181370500904 -0.025573804695966602 0.04694290445807344 -0.02486791278197039 -0.004579700184823089 -0.011704777978472957 -5.6164406278433505 -0.016437104798417413 0.032557548632431384 -6.709629143758977 -0.0005760845162206981 -0.0034910300322688634 -6.699392150949298 0.03060109927147498 0.03731700190177468 -0.04827646015618836 -0.0224390500797133 0.03929648189137074 8.047486954298845 3.4909262061464075 -19.188441415787143 0.024239710548692846 10.409618948258906 -0.029929658834507992 -5.603547512385435 -15.708568224033991 3.1967537653354987 0.03671312613079374 -0.03459969432469564 0.0007293398003010891 -0.002483080367467318 4.74230406014922 0.013480742129399119 12.48833043236579 -8.2394492691518 6.892961551192516 0.004480636183652286 46.3693222240843 -0.0015227372302104383 -4.319832711930114 -14.739586240929807 -3.8490562705080817 -0.003171453588888602 -0.0074473659322476975 -0.026991788508421436 0.046349439100372855 -10.785400274641018 0.04896481005766847 
-0.0021139759618566214 -0.027360642726482795 0.04640872024857429 -0.033050612124843934 0.04665714428084329 0.0024420409118573226 0.3880162269749873 3.5446995371977748 -1.4057668488095532 -1.0584498706640075 3.527035886394415 0.43290975170525864 -1.0485295832773698 -0.9702579233730683 0.8126432947513715 -1.1647662744450327 -0.4139224148860628 -0.45078904962379485 -0.31100296908085445 11.31963771149746 0.5151338394876569 0.0727093133388155 -0.485690509710526 -0.08937492632107469 0.04815763712444653 -15.952249590277345 0.03760537885827251 -9.365251110279894 3.428798462088448 -14.921443439490515 63.316342670540195 -21.582506395213308 27.411005011558636 19.312452596951942 -4.015940267815303 80.65413476213541 15.382819208718018 -0.5519035477801356 -4.304194498523008 4.525297189540854 -0.16337741966050523 -1.5877283674566456 -0.036756484282480406 -0.042349867004696784 -56.22208768473211 -0.004482034448751759 0.01680213342592008 -56.192216258941414 -38.7240446832525 0.03695520680948254 0.009219671117196316 0.011075085573774715 0.039582079160750946 0.03080986967058539 -0.014397661034545465 -0.014432553875445701 -0.04627854991699853 -36.66371022003659 0.03649853908150224 0.01756578875755501 0.012838058386046382 -0.02201546102021893 -0.019803381067893956 -0.016574330106440136 -0.0011087152509253833 -0.002893982229480584 -19.762246511810233 0.01578984348332558 0.02062110172415962 0.018331832677177067 -0.030295400368306864 0.022303500629951605 -0.018465460980892447 0.030060083990972545 -0.0026870318544757405 24.033568803922222 -0.045643881821353295 -0.04037160990873387 28.88691708968817 0.012137565912247269 -0.02456283174963865 28.832959354765055 -0.030665456586695252 0.004535506602730466 7.155992772612622 1.8306376774860507 13.088905611279591 -62.869903796601044 16.864218911465734 -17.27082197800152 6.855308126727851 -7.634930948277528 -50.413222372230294 -17.26532419537594 -1.1327952096452139 3.721401241605749 -0.4662550586503037 0.03242295411717827 -8.10406721234869 0.014931814144551445 -0.002377320773628941 44.61276466095609 -0.00028313086968351307 0.022904750712696684 44.546789870555266 12.438920428203524 0.03558409284794264 -0.013395135265145118 0.02211935212105259 0.036533211900875155 -0.03883761101305737 -0.022646821137347464 -0.0035306711762399527 -0.025530651998233334 11.15385620512634 0.0002843979620963841 0.03010669409424701 -0.014115851033889739 0.026606308734616665 -0.009857871130461632 -0.018761432076117416 -0.04702778486272472 0.04499336754558345 4.781751506452052 0.008043715006208004 0.019763191293256276 0.006282280177073941 -0.020768509268812553 -0.040674271680023785 -0.017809375666788956 -0.011652930073123449 0.04685915296707507 -5.570860128054247 -0.0449779468314913 -0.03145456131599033 -6.696126431598437 -0.04949731642787074 0.035114330151881895 -6.691769531749242 -0.004547339065630657 -0.021956473681469305 -0.04714113551958332 -0.03218372659999878 -0.039014908002467305 8.049490175969135 3.524590868293117 -19.265132524549937 0.02930031876117784 10.376125562923349 -0.02753006695390597 -5.64828500703853 -15.636737900760776 3.1850543135937657 0.02703118376070381 0.022587050486737443 0.004175332701651049 -0.03886036309200438 4.707784240109583 -0.03507359982540557 12.49686375774305 -8.23886957945192 6.885114715263758 -0.03718844586018864 46.40529883856394 0.02950978167999138 -4.332038428959057 -14.737329037561599 -3.825733720449232 -0.008633224173019283 -0.005978940830652147 0.022874707933455033 0.007601605001037261 -10.7479061500156 0.02903153596104161 
0.03366470337806711 0.035305148042248984 -0.002783251870061936 -0.02632041305938418 -0.018428293688862018 0.0357523625718767 0.6063494785696242 3.718975835801068 -1.452386141559146 -1.0031812402546372 3.501574871007034 0.4792957218080999 -1.0159159157220128 -0.9043267068514558 0.6348883535147521 -0.9518819880242091 -0.37674005936507304 -0.4784540433953999 -0.15398170028600672 11.149458050982588 0.016061819471182168 0.039210353090036246 -0.6937860074899661 -1.0257131452095087 0.2355117041766541 -16.28412321432852 -0.04815836842754391 -9.099545902689426 3.3768920455524825 -15.267706685876515 64.40774396070111 -22.391223225623893 25.163199278485543 19.504034833816792 -3.0141038900785295 80.10701439052714 14.530999659617013 -0.5064040571212931 -4.0983803489709985 4.506212549152261 -0.11659274043589954 -1.599392665411284 0.015685889183283834 -0.0008183488108841067 -56.24797474590703 -0.026726784858455227 0.001636149499376129 -56.243895449630436 -38.78526071878987 -0.047050899758326034 0.037906845824696035 -0.000992262999541282 -0.020226751512068226 -0.030614250829093092 0.00500994808798061 0.03139932018575958 0.027680148017617024 -36.738159702155095 0.032686083523037986 0.04360873863280518 0.04208052634105391 0.024104394987031347 -0.00525278979508761 0.023222863427509496 -0.04088303773641669 0.03929457606459209 -19.742567993134976 0.02786553500475768 -0.00404935698682547 -0.013418059320926361 0.02743086923513151 4.3792643947979334e-05 -0.042371420262627545 0.006437949166771472 0.033785201409115256 24.005851861620044 -0.022068355173981983 0.03529103047988416 28.878954146225002 -0.0025656014453031015 -0.03540872226134496 28.8687780746787 0.007875642959013544 0.011876498470562479 6.773536293652852 1.7527396830269653 13.01063402895623 -63.396897237790974 17.71404440879468 -16.304740613388365 5.462489674584706 -6.500403764218567 -51.03574433672044 -16.761369238264724 -1.7010576744118941 3.9994068538445218 -0.44869956192054516 0.11170984791502397 -8.139668025376938 -0.002415788964889364 -0.030353121766726807 44.53572475953281 0.02081562819176034 -0.021705822174203165 44.550750153796855 12.482745562912157 0.00791370976110793 0.024648642455879884 0.012000677800770583 0.03348578686843772 0.03352425021593564 0.011112904408865176 -0.022420061252967645 -0.004000480306011623 11.081597495746763 0.022122805536067876 0.0046764415728931495 -0.01968442408846803 0.00748883117364835 0.007526923763081993 -0.0118174302831294 0.040046652802506015 0.04199032666394226 4.811165264023386 -0.017280284695250565 0.03541541932606667 -0.012251954590232275 -0.03689262517009894 -0.020056269195223287 -0.03794438320294969 -0.028012675978173085 0.030226704495283283 -5.5649559232913255 0.01474369882835434 -0.0282157449953037 -6.731684589397606 -0.04745603881649495 -0.013169782599189295 -6.685417446800674 -0.00306029069854317 -0.0029350380694386784 -0.03969539325924677 0.03962697733618844 0.038616204857065115 8.027612479907765 3.488271670244568 -19.23065212785231 -0.020803434919761193 10.348980620305497 0.015901184032898363 -5.5989490105604105 -15.670585482174252 3.1701923401170893 -0.031172262705391487 -0.034728827874637276 -0.028874994242265164 0.04555220661251277 4.677297362490248 0.03847571606020373 12.4582243022636 -8.25042382244507 6.881003431113474 0.019289455929331643 46.36134534645928 -0.026334976200735438 -4.27587461446377 -14.786568100963315 -3.8161775008176995 0.04431730100938377 -0.004211112553295005 -0.017974344193452237 -0.04167499143301821 -10.75594910649723 0.032748707111662716 
-0.03771665616895778 0.047698081738342606 -0.04949606880174082 -0.025587486844015173 -0.00669550707957856 -0.035650732924760835 0.5446566678120975 4.116798737442495 -1.5149156104177253 -1.0653692732998392 3.5832182183634758 0.47171684383222234 -1.0715141192795272 -0.7523185639301445 0.26899833941130535 -0.7432637846925882 -0.2857518130592806 -0.4733588702836678 -0.05695261073435805 10.824385716418771 -0.32157264614413084 0.021301526218505944 -0.9067254996636068 -1.5771847994674923 0.28637901495100604 -16.686524264040305 -0.13469273819269884 -8.625823116520067 3.128437548853209 -15.56714115375826 65.59824271973064 -22.76421366182929 22.145774877155368 20.410743371942054 -2.1702064983034233 78.93380195969674 13.821071544929442 -0.46711096884504105 -3.97860969630229 4.564243968970727 -0.084213246148466 -1.6266659734759799 -0.006462041769671291 -0.028613670602713876 -56.24755193975196 0.026390379920160047 -0.02987785488965646 -56.24607190501222 -38.76616584187188 0.004881926546273555 -0.03687642298324446 0.010249133295600076 0.03146425647821845 0.0019420169167384813 0.008972131779037293 -0.012810098989993045 -0.014909299578314087 -36.71277256725499 0.0006733611149833989 -0.04352094224557387 0.02436336183251685 0.03171592918634142 0.038588600087091085 -0.012535204284603642 -0.01128658469483086 0.009633053263152364 -19.728127523017097 0.03553611808052886 0.020532791366158983 -0.0354653694560029 -0.027681761992124555 -0.028342627114543658 -0.002406333624930866 0.043696671341523136 -0.03583883897182512 24.0373243164316 -0.010135560347484493 -0.019013226936129696 28.87396550346387 -0.022697960682056855 0.003169602021524097 28.885071329237928 -0.0010320946478520696 0.025773014784288815 6.298906144595362 1.6966210798376833 12.927387630950264 -63.81822327152874 18.76598748961815 -15.46486579935035 3.62112246194863 -5.234167237311584 -52.46140293397671 -16.047975178593543 -2.049652146404721 4.089040873046628 -0.44444464833833464 0.10239115005767187 -8.128061826722071 0.003918603363181962 0.04970292893399983 44.5486095558155 -0.012207629506240577 -0.039162858301680765 44.528180797459775 12.455480260103228 -0.0065392272884336996 0.018219682859811605 -0.014552010234393196 -0.029385655033116943 -0.015868639475635837 -0.026122395198754696 0.03552693665143854 0.03976100231597766 11.093252252429311 0.018520506725892748 -0.028917515524818953 -0.033570249722797936 -0.019178580717052394 0.024245572374071985 -0.03625723433087575 0.031453422714787044 -0.021633100269605847 4.795063638642398 0.013902296692180658 0.020014433431587868 0.04271577875968078 0.0038768549530387294 -0.01477886291464179 0.024729528985690873 0.03972425497549745 0.0024798864460632737 -5.596515781877296 -0.04724488637252678 0.008534219885146363 -6.701471569847519 0.0491703988812312 -0.00010601027715840926 -6.752320950049469 -0.027914653075573743 0.006882982727112334 -0.001766540677937755 -0.007404980715339429 -0.013641963739732624 8.035517115518823 3.4624303115406456 -19.196650773728678 -0.013793077142425217 10.389318569262697 0.03716349218350086 -5.6127058538215655 -15.67807426324493 3.20359213880819 0.017236884348272623 -0.020137446069736775 -0.034847365092051635 -0.03202060426036761 4.655403785388162 -0.03235291746601897 12.42488377825597 -8.265724319700603 6.84644112776621 -0.037509271185034 46.353293117587434 -0.015346735307058663 -4.361911219881958 -14.72141815060066 -3.8488271078123404 -0.03654059391244715 -0.029584834550302017 0.034760406183210656 0.016724476116379828 -10.764262268383971 -0.025389296419988244 
